<svg version="1.2" baseProfile="tiny-ps" xmlns="http://www.w3.org/2000/svg" viewBox="0 0 1280 720" width="1000" height="563">
	<title>New Project</title>
	<style>
		tspan { white-space:pre }
	</style>
	<path id="C//w " fill="#ffffff" aria-label="C//w"  d="M172.49 365.64C188.75 237.21 231.97 183.7 305.81 183.78L308.93 183.78C378.61 183.86 402.49 221.32 389.91 314.91L411.75 314.93L413.32 305.06C427.45 216.67 393.71 164.11 307.39 164.02C218.99 163.93 168.48 224.19 150.65 365.61L149.08 378.09C130.72 523.15 170.18 579.87 259.62 579.97C340.74 580.06 385 528.11 393.92 449.59L394.45 444.92L372.61 444.89C362.65 520.28 329.32 560.29 261.2 560.21L258.08 560.21C184.24 560.13 154.14 509.66 170.92 378.12ZM981.3 325.42L1019.51 575.59L1048.63 575.62L1148.24 300.12L1126.4 300.1L1035.65 554.8L996.92 299.96L970.92 299.93L865.09 554.62L841.44 299.79L820.64 299.77L847.91 575.4L877.03 575.43Z" />
	<path id="C//w " fill="#348cd2" aria-label="C//w"  d="M639.89 71.18L615.89 71.15L402.27 646.92L425.67 646.95ZM819.89 71.37L795.89 71.35L582.27 647.12L605.67 647.14Z" />
</svg>